<svg xmlns="http://www.w3.org/2000/svg" xmlns:xlink="http://www.w3.org/1999/xlink" width="170" zoomAndPan="magnify" viewBox="0 0 127.5 127.499994" height="170" preserveAspectRatio="xMidYMid meet" version="1.0"><defs><clipPath id="8f1f2e4eb5"><path d="M 0.699219 0.527344 L 102.253906 0.527344 L 102.253906 110.296875 L 0.699219 110.296875 Z M 0.699219 0.527344 " clip-rule="nonzero"/></clipPath><clipPath id="4172bda288"><rect x="0" width="103" y="0" height="111"/></clipPath></defs><g transform="matrix(1, 0, 0, 1, 12, 8)"><g clip-path="url(#4172bda288)"><g clip-path="url(#8f1f2e4eb5)"><path fill="#fdca14" d="M 97.304688 89.515625 C 96.507812 89.367188 95.804688 89.023438 95.195312 88.496094 C 94.554688 87.953125 94.03125 87.058594 93.628906 85.8125 C 92.347656 87.21875 90.882812 88.222656 89.234375 88.824219 C 87.640625 89.421875 85.996094 89.722656 84.292969 89.726562 C 82.890625 89.726562 81.425781 89.425781 79.898438 88.824219 C 78.363281 88.226562 77.085938 87.273438 76.074219 85.96875 C 75.582031 85.335938 75.214844 84.640625 74.972656 83.875 C 74.671875 84.300781 74.351562 84.707031 74.007812 85.09375 C 72.84375 86.421875 71.289062 87.542969 69.34375 88.46875 C 67.394531 89.390625 65.039062 89.851562 62.265625 89.847656 C 58.933594 89.847656 56.15625 89.164062 53.925781 87.800781 C 51.695312 86.4375 50.027344 84.671875 48.925781 82.503906 C 48.195312 81.085938 47.707031 79.59375 47.453125 78.019531 C 47.078125 79.429688 46.507812 80.75 45.742188 81.992188 C 44.238281 84.417969 42.179688 86.335938 39.570312 87.742188 C 36.960938 89.144531 34.011719 89.847656 30.71875 89.847656 C 28.070312 89.847656 25.679688 89.285156 23.554688 88.164062 C 21.40625 87.039062 19.710938 85.433594 18.46875 83.351562 C 17.203125 81.265625 16.570312 78.796875 16.570312 75.945312 C 16.570312 72.929688 17.324219 70.203125 18.828125 67.753906 C 20.332031 65.308594 22.386719 63.359375 24.996094 61.90625 C 27.601562 60.464844 30.535156 59.742188 33.785156 59.742188 C 36.675781 59.742188 39.183594 60.363281 41.3125 61.609375 C 43.425781 62.820312 45.074219 64.496094 46.25 66.632812 C 47.054688 68.09375 47.578125 69.648438 47.820312 71.300781 C 48.1875 69.921875 48.746094 68.625 49.496094 67.414062 C 50.230469 66.234375 51.101562 65.164062 52.109375 64.203125 C 53.117188 63.246094 54.230469 62.429688 55.449219 61.757812 C 56.667969 61.085938 57.949219 60.578125 59.296875 60.238281 C 60.648438 59.894531 62.015625 59.726562 63.40625 59.738281 C 65.9375 59.738281 68.144531 60.203125 70.03125 61.128906 C 71.917969 62.054688 73.390625 63.277344 74.457031 64.796875 C 75.539062 66.332031 76.070312 68.035156 76.054688 69.914062 C 76.054688 71.679688 75.542969 72.976562 74.515625 73.796875 C 73.492188 74.621094 72.359375 75.03125 71.113281 75.03125 C 69.589844 75.03125 68.464844 74.582031 67.742188 73.679688 C 67.019531 72.777344 66.476562 71.683594 66.113281 70.398438 C 65.59375 68.632812 64.921875 67.230469 64.097656 66.183594 C 63.273438 65.140625 62.320312 64.617188 61.238281 64.621094 C 60.074219 64.621094 59.171875 65.140625 58.527344 66.183594 C 57.886719 67.230469 57.566406 68.65625 57.566406 70.460938 C 57.566406 72.753906 57.949219 74.78125 58.707031 76.546875 C 59.46875 78.308594 60.5625 79.703125 61.992188 80.730469 C 63.417969 81.75 65.113281 82.261719 67.078125 82.265625 C 68.726562 82.265625 70.070312 81.953125 71.113281 81.332031 C 72.175781 80.695312 73.199219 80.003906 74.183594 79.25 C 74.371094 79.101562 74.570312 78.976562 74.785156 78.875 C 75.0625 77.757812 75.5625 76.75 76.28125 75.851562 C 77.445312 74.382812 79.082031 73.238281 81.191406 72.417969 C 83.296875 71.59375 85.777344 71.183594 88.625 71.183594 C 89.628906 71.183594 90.34375 71.191406 90.765625 71.214844 C 91.359375 71.253906 91.953125 71.324219 92.539062 71.425781 C 92.058594 69.582031 91.238281 68.289062 90.074219 67.542969 C 88.910156 66.800781 87.421875 66.429688 85.617188 66.429688 C 84.609375 66.429688 83.625 66.582031 82.664062 66.882812 C 81.679688 67.191406 80.738281 67.601562 79.839844 68.109375 C 79.492188 68.359375 79.109375 68.429688 78.695312 68.324219 C 78.277344 68.226562 78 67.976562 77.851562 67.574219 C 77.691406 67.171875 77.773438 66.671875 78.09375 66.070312 C 78.65625 65.105469 79.558594 64.132812 80.804688 63.148438 C 82.144531 62.109375 83.609375 61.296875 85.199219 60.710938 C 86.867188 60.070312 88.59375 59.75 90.378906 59.75 C 94.417969 59.75 97.496094 60.777344 99.617188 62.835938 C 99.53125 62.417969 99.4375 62 99.34375 61.582031 C 96.746094 50.011719 92.476562 38.847656 86.949219 28.46875 C 84.136719 23.1875 81 18.105469 77.539062 13.226562 C 74.230469 8.554688 70.644531 3.183594 65.121094 1.179688 C 59.515625 -0.859375 54.105469 2.25 49.558594 5.488281 C 44.539062 9.070312 39.777344 12.964844 35.273438 17.171875 C 26.039062 25.824219 18.089844 35.527344 11.425781 46.285156 C 8.179688 51.523438 5.0625 57.007812 2.78125 62.769531 C 0.765625 67.863281 -0.257812 73.632812 2.046875 78.769531 C 4.210938 83.59375 8.863281 86.535156 13.289062 88.960938 C 18.332031 92.109375 24.074219 94.324219 29.496094 96.582031 C 36.617188 99.542969 43.867188 102.136719 51.25 104.359375 C 58.675781 106.882812 66.246094 108.894531 74.050781 109.859375 L 74.109375 109.867188 C 75.0625 110.007812 76.019531 110.121094 76.980469 110.1875 C 81.710938 110.648438 86.679688 110.722656 91.164062 109.128906 C 96.652344 107.175781 100.148438 102.664062 101.40625 96.878906 C 101.941406 94.398438 102.195312 91.832031 102.273438 89.253906 C 101.367188 89.566406 100.433594 89.726562 99.472656 89.734375 C 98.742188 89.726562 98.019531 89.65625 97.304688 89.515625 Z M 97.304688 89.515625 " fill-opacity="1" fill-rule="nonzero"/></g><path fill="#fdca14" d="M 91.824219 75.273438 C 91.261719 74.953125 90.398438 74.792969 89.234375 74.792969 C 87.667969 74.792969 86.382812 75.234375 85.378906 76.117188 C 84.378906 77 83.855469 78.207031 83.816406 79.730469 C 83.816406 81.214844 84.246094 82.367188 85.109375 83.191406 C 85.972656 84.035156 87.003906 84.449219 88.210938 84.425781 C 88.914062 84.414062 89.585938 84.265625 90.226562 83.976562 C 90.925781 83.679688 91.539062 83.257812 92.0625 82.710938 C 92.597656 82.167969 92.859375 81.515625 92.847656 80.757812 L 92.847656 79.160156 C 92.847656 78.578125 92.808594 77.867188 92.730469 77.023438 C 92.6875 76.179688 92.386719 75.597656 91.824219 75.273438 Z M 91.824219 75.273438 " fill-opacity="1" fill-rule="nonzero"/><path fill="#fdca14" d="M 35.625 69.4375 C 35.042969 67.992188 34.316406 66.828125 33.453125 65.945312 C 32.589844 65.0625 31.617188 64.621094 30.535156 64.617188 C 29.449219 64.617188 28.65625 64.960938 28.15625 65.644531 C 27.65625 66.328125 27.335938 67.167969 27.195312 68.171875 C 27.054688 69.148438 26.988281 70.132812 26.984375 71.121094 C 26.988281 72.726562 27.160156 74.3125 27.496094 75.878906 C 27.8125 77.417969 28.296875 78.902344 28.941406 80.335938 C 29.5625 81.699219 30.296875 82.792969 31.140625 83.617188 C 31.984375 84.441406 32.925781 84.851562 33.96875 84.851562 C 35.011719 84.851562 35.777344 84.539062 36.257812 83.917969 C 36.761719 83.246094 37.085938 82.492188 37.21875 81.660156 C 37.375 80.804688 37.457031 79.941406 37.457031 79.070312 C 37.453125 77.410156 37.289062 75.761719 36.976562 74.132812 C 36.675781 72.523438 36.226562 70.957031 35.625 69.4375 Z M 35.625 69.4375 " fill-opacity="1" fill-rule="nonzero"/></g></g></svg>